<?xml version="1.0" encoding="utf-8"?>
<!-- Svg Vector Icons : http://www.onlinewebfonts.com/icon -->
<!DOCTYPE svg PUBLIC "-//W3C//DTD SVG 1.1//EN" "http://www.w3.org/Graphics/SVG/1.1/DTD/svg11.dtd">
<svg version="1.1" xmlns="http://www.w3.org/2000/svg" xmlns:xlink="http://www.w3.org/1999/xlink" x="0px" y="0px" viewBox="0 0 256 256" enable-background="new 0 0 256 256" xml:space="preserve">
<metadata> Svg Vector Icons : http://www.onlinewebfonts.com/icon </metadata>
<g><g><g><path fill="#000000" d="M120,10c-0.9,0.1-3.7,0.4-6.1,0.7c-44.8,5.1-84.5,38.1-98.5,81.7c-4.2,12.9-5.7,24.1-5.3,38.4c0.3,10.9,1,16.6,3.4,25.8c2.2,8.3,4.3,14,8.6,22.9c13.2,26.9,36.1,47.8,64.2,58.8c35.4,13.8,75.7,9.1,107.4-12.5c7.3-5,11.5-8.4,17.4-14.4c9.9-10.1,16.1-18.5,22-29.9c6-11.7,9.7-22.7,11.9-36.4c1.1-6.3,1.4-20.6,0.7-27.9c-2.6-27.3-14.8-52.9-34.6-72.7c-18.7-18.7-41.9-30.1-68.5-33.9C138.8,10.1,122.8,9.7,120,10z M144.4,20.9c31.6,4.6,60.2,23.6,76.4,50.7c15.5,26,19.6,57.3,11.2,86.9c-3.2,11.6-9.6,24.4-16.9,34.3c-3.6,4.9-11.1,13.2-12.1,13.5c-1.6,0.5-26.2-10.9-35.9-16.6c-2.7-1.6-5.9-3.9-7.2-5.1l-2.3-2.2v-3.6c0-3.4,0.1-3.7,1.7-5.6c3.9-4.7,8.4-12.7,11.2-20.2c0.8-2.2,2.2-4.8,3-5.7c3.6-4,5.2-8.7,5.2-14.5c0-4.2-0.5-6.2-2.2-9.9c-1.1-2.4-1.1-2.8-1.1-15.5c0-10.9-0.1-13.7-0.9-17.2c-4.4-21.1-20.9-33-45.8-33c-6.8,0-11.5,0.6-17,2.2C100,62.6,91.1,69.8,86.1,80.1c-3.6,7.5-4.1,10.1-4.4,26.8l-0.3,14.5l-1.3,3c-3.1,7.2-1.7,16.4,3.5,22.6c1.2,1.4,2.4,3.8,3.5,6.8c2.6,7.1,6.5,14,10.6,19c1.7,2.2,1.8,2.3,1.8,6c0,3.8,0,3.8-1.7,5.5c-3,2.9-8.4,6.1-18.6,11.2c-13.5,6.7-24.9,11.6-26,11.1c-0.9-0.5-6.9-7.1-10.4-11.5c-9.3-11.7-16.9-27.7-20.2-42.9c-2-9-2.4-13.2-2.4-24.4c0-7.8,0.2-11.9,0.8-15.9C26.4,76,48.1,46.2,80,30.8c13.1-6.3,26-9.8,41.2-11C125.9,19.5,138.4,20.1,144.4,20.9z M136.9,67.4c7.8,0.9,13.8,3.2,18.5,6.8c4.8,3.7,8.4,10.7,9.7,18.4c0.2,1.7,0.5,9.4,0.5,17.1v14.1l1.6,2.6c3.8,6.2,3.2,10.8-2.1,15.3c-1.5,1.3-2.1,2.4-3.5,6.5c-2.9,8.2-5.9,13.8-11,19.8l-2.9,3.4v6.3c0,4.5,0.2,6.7,0.7,7.9c1.1,2.5,5.7,6.7,12,11c5.3,3.5,20.9,11.6,29.9,15.6l4,1.7l-2.8,2c-16.4,11.8-36.9,19-57,19.9c-23,1.1-44-3.9-62.2-14.9c-5-3-10-6.5-9.8-6.8c0.1-0.1,4.2-2,9-4.2c16.1-7.3,27-13.7,32.9-19.2c4.5-4.2,4.8-5.1,4.8-12.7c0-3.9-0.2-6.8-0.5-7.4c-0.3-0.6-1.5-2-2.6-3.2c-4.2-4.5-8.3-12-10.8-19.8c-1.2-3.6-1.7-4.5-3.6-6.3c-3.3-3.1-4.2-5.2-4-8.8c0.1-2.3,0.5-3.4,1.9-5.6l1.7-2.8l0.2-15.7c0.2-14.2,0.3-16.1,1.2-19.4c3.4-12.3,11.9-19.4,25.8-21.6C123.6,66.8,131.7,66.7,136.9,67.4z"/></g></g></g>
</svg>